<svg xmlns="http://www.w3.org/2000/svg" width="1024" height="1024" viewBox="0 0 1024 1024" version="1.1"><path d="M 416 206.876          C 406.634 209.956, 398.101 217.172, 393.976 225.500          C 391.720 230.055, 391.511 231.590, 391.623 242.745          L 391.746 254.991 381.700 266.745          C 363.081 288.532, 354.559 301.338, 343.934 323.500          C 331.742 348.930, 323.331 377.797, 320.478 404          C 320.089 407.575, 319.357 411.288, 318.850 412.250          C 317.985 413.894, 313.151 414, 238.933 414          C 173.764 414, 159.847 414.235, 159.422 415.342          C 159.139 416.080, 165.051 430.593, 172.561 447.592          C 180.070 464.592, 191.832 491.325, 198.697 507          C 205.563 522.675, 212.118 536.513, 213.264 537.750          L 215.349 540 267.552 540          C 308.139 540, 319.967 540.278, 320.709 541.250          C 321.234 541.938, 333.712 603.250, 348.439 677.500          C 363.167 751.750, 382.769 850.525, 392 897          C 401.231 943.475, 410.529 990.725, 412.662 1002          L 416.540 1022.500 507.770 1022.755          L 599 1023.011 599 1020.792          C 599 1019.572, 602.350 1001.682, 606.445 981.037          C 610.540 960.391, 617.760 923.700, 622.489 899.500          C 627.219 875.300, 634.865 836.600, 639.480 813.500          C 647.736 772.181, 665.204 683.959, 683.041 593.500          C 692.941 543.293, 693.379 541.452, 695.630 540.588          C 696.474 540.265, 719.577 540, 746.971 540          C 792.955 540, 796.937 539.866, 798.839 538.250          C 799.973 537.288, 811.549 513.550, 824.563 485.500          C 855.534 418.748, 856.258 417.115, 855.614 415.435          C 855.141 414.205, 843.775 414, 776.010 414          L 696.957 414 696.041 411.750          C 695.538 410.512, 694.618 405, 693.997 399.500          C 688.415 350.058, 664.141 298.379, 629.338 261.847          C 622.584 254.758, 622.259 253.774, 623.891 245.348          C 624.885 240.219, 623.577 230.029, 621.373 225.719          C 614.636 212.550, 601.424 205.018, 587.363 206.331          C 574.955 207.489, 564.376 214.462, 559.280 224.839          C 556.832 229.823, 556.500 231.636, 556.500 240          C 556.500 248.356, 556.833 250.179, 559.270 255.142          C 560.794 258.244, 564.090 262.672, 566.595 264.981          C 576.650 274.249, 588.999 276.691, 602.215 272.026          C 606.995 270.338, 609.494 269.923, 610.920 270.579          C 614.061 272.025, 631.642 293.416, 639.210 305          C 655.607 330.098, 666.908 358.033, 673.183 388.979          C 674.356 394.766, 675.357 402.650, 675.408 406.500          L 675.500 413.500 507.720 413.753          C 352.690 413.987, 339.891 413.881, 339.307 412.358          C 338.345 409.851, 341.728 389.148, 345.512 374.382          C 353.147 344.592, 367.082 315.538, 385.064 291.915          C 393.309 281.085, 403.833 270, 405.871 270.001          C 406.767 270.001, 409.972 270.940, 412.993 272.089          C 425.529 276.853, 439.381 273.779, 449.080 264.080          C 456.070 257.090, 459 250, 459 240.077          C 459 226.066, 452.774 215.968, 440.370 209.861          C 435.093 207.263, 432.425 206.605, 426.185 206.358          C 421.958 206.191, 417.375 206.424, 416 206.876" stroke="none" fill="#ffffff" fill-rule="evenodd"/></svg>